<?xml version="1.0" standalone="no"?>
<!DOCTYPE svg PUBLIC "-//W3C//DTD SVG 20010904//EN"
 "http://www.w3.org/TR/2001/REC-SVG-20010904/DTD/svg10.dtd">
<svg version="1.0" xmlns="http://www.w3.org/2000/svg"
 width="512.000000pt" height="512.000000pt" viewBox="0 0 512.000000 512.000000"
 preserveAspectRatio="xMidYMid meet">
<metadata>
Created by potrace 1.11, written by Peter Selinger 2001-2013
</metadata>
<g transform="translate(0.000000,512.000000) scale(0.100000,-0.100000)"
fill="#000000" stroke="none">
<path d="M2360 5103 c-263 -18 -513 -57 -700 -107 -60 -17 -90 -44 -90 -83 0
-23 40 -73 59 -73 5 0 56 11 113 24 121 29 300 60 448 78 137 17 592 17 735 0
395 -46 703 -131 990 -274 209 -105 349 -204 514 -363 200 -194 357 -428 461
-690 54 -137 35 -234 -58 -300 l-44 -30 -2205 -3 c-1497 -1 -2218 1 -2244 8
-81 22 -142 105 -142 195 1 57 37 156 115 310 198 392 508 690 935 895 67 33
127 68 132 79 16 29 13 56 -8 82 -30 38 -73 30 -211 -39 -231 -114 -391 -225
-568 -397 -185 -178 -308 -346 -420 -570 -100 -203 -117 -255 -117 -365 1
-108 18 -158 84 -231 l37 -42 -47 -44 c-93 -87 -137 -215 -126 -367 13 -181
100 -305 262 -371 l60 -24 3 -225 c1 -143 -1 -226 -7 -226 -39 0 -129 -49
-182 -98 -104 -96 -147 -216 -136 -376 7 -96 33 -171 85 -239 43 -56 138 -123
198 -139 l41 -11 6 -116 c24 -501 427 -869 1040 -951 50 -6 478 -10 1187 -10
1219 0 1225 0 1433 61 143 41 342 142 446 225 215 173 335 406 348 677 5 101
8 117 23 117 34 0 142 63 189 110 130 133 160 362 70 541 -37 74 -131 161
-204 188 -31 12 -60 21 -66 21 -6 0 -8 83 -7 226 l3 225 60 24 c163 67 250
191 262 375 10 150 -34 277 -126 363 l-49 46 30 28 c16 15 43 57 61 93 48 96
49 184 7 305 -66 185 -198 419 -331 585 -416 520 -1062 818 -1904 880 -130 9
-338 11 -445 3z m2469 -2008 c54 -30 84 -62 117 -125 26 -49 26 -197 1 -262
-22 -58 -98 -129 -155 -146 -30 -9 -569 -12 -2243 -12 -2113 0 -2206 1 -2244
19 -61 27 -121 99 -141 167 -35 121 -1 260 79 330 80 67 -92 63 2332 61 l2200
-2 54 -30z m-189 -790 l0 -85 -764 0 c-714 0 -765 -1 -785 -18 -30 -24 -31
-76 -2 -105 l22 -22 764 -3 765 -2 0 -176 c0 -198 -6 -220 -68 -250 -43 -20
-93 -13 -135 19 -18 13 -57 37 -87 53 -52 27 -62 29 -175 29 -109 0 -125 -2
-176 -26 -31 -15 -90 -52 -130 -82 -97 -72 -127 -86 -198 -93 -95 -10 -148 8
-263 92 -131 96 -197 118 -336 112 -116 -5 -159 -22 -277 -107 -123 -89 -137
-95 -235 -96 -99 0 -122 9 -249 103 -112 84 -181 105 -314 100 -119 -4 -169
-24 -282 -108 -62 -46 -135 -90 -150 -90 -3 0 -5 104 -5 231 l0 231 29 29 29
29 580 0 c397 0 589 3 611 11 53 19 66 67 30 113 l-20 26 -597 0 c-380 0 -611
-4 -634 -10 -56 -16 -119 -69 -147 -125 l-26 -49 -5 -521 c-5 -518 -5 -520
-27 -551 -62 -87 -179 -82 -247 10 -20 27 -21 42 -26 554 -6 593 -1 556 -84
629 -65 58 -95 63 -335 63 l-211 0 0 85 0 85 2080 0 2080 0 0 -85z m-3707
-261 c33 -33 39 -64 35 -189 l-3 -100 -70 -6 c-81 -8 -129 -25 -197 -74 -27
-20 -62 -38 -78 -41 -42 -9 -97 13 -122 49 -21 30 -23 44 -26 210 l-4 177 220
0 219 0 26 -26z m-608 -311 c14 -114 89 -209 189 -238 93 -28 163 -16 248 42
70 47 109 63 158 63 l40 0 0 -185 0 -185 -302 0 c-296 0 -304 1 -353 24 -27
12 -67 41 -87 64 -88 97 -91 293 -7 396 29 34 83 76 100 76 4 0 10 -26 14 -57z
m4537 24 c24 -18 56 -57 73 -87 27 -50 29 -63 29 -150 0 -135 -34 -200 -133
-258 l-46 -27 -1612 -3 -1613 -2 0 84 0 84 37 7 c52 9 106 38 191 102 104 77
142 93 232 93 90 0 128 -16 232 -93 129 -96 208 -123 337 -114 101 7 175 36
273 109 119 88 153 101 252 96 91 -5 110 -13 211 -88 130 -96 225 -128 353
-117 95 8 168 38 266 111 111 83 154 99 249 94 69 -3 79 -7 145 -50 82 -54
143 -73 212 -65 130 16 228 116 245 255 4 28 11 52 15 52 5 0 28 -15 52 -33z
m-3890 -745 c16 -148 137 -255 288 -256 81 0 127 15 189 64 59 47 100 124 108
204 l6 56 1538 0 1539 0 0 -83 c0 -192 -93 -404 -236 -537 -134 -125 -344
-228 -564 -276 -80 -18 -150 -19 -1280 -19 -1130 0 -1200 1 -1280 19 -186 41
-390 132 -510 229 -125 101 -221 243 -264 387 -20 68 -38 222 -30 255 l6 25
242 -2 241 -3 7 -63z"/>
<path d="M1901 4527 c-16 -7 -42 -45 -69 -98 -42 -81 -44 -88 -31 -115 17 -35
58 -52 96 -38 19 6 38 32 72 95 42 79 44 87 32 116 -7 17 -24 35 -37 42 -31
14 -33 14 -63 -2z"/>
<path d="M2504 4519 c-12 -14 -19 -40 -22 -84 -8 -119 17 -175 78 -175 56 0
70 27 70 138 0 118 -11 142 -69 142 -26 0 -44 -7 -57 -21z"/>
<path d="M3153 4525 c-31 -13 -43 -32 -43 -67 0 -23 76 -157 99 -175 23 -18
66 -16 89 5 36 30 35 55 -4 128 -58 111 -86 132 -141 109z"/>
</g>
</svg>
